<svg width="20" height="25" viewBox="0 0 20 25" fill="none" xmlns="http://www.w3.org/2000/svg">
<path id="&#239;&#138;&#144;" d="M10 0.5C9.19021 0.5 8.43691 0.711538 7.74011 1.13462C7.04331 1.53846 6.48776 2.09615 6.07345 2.80769C5.67797 3.51923 5.48023 4.28846 5.48023 5.11538V6.03846H1.01695L0.960452 6.90385L0 24.5H20L19.0395 6.90385L18.9831 6.03846H14.5198V5.11538C14.5198 4.28846 14.3126 3.51923 13.8983 2.80769C13.5028 2.09615 12.9567 1.53846 12.2599 1.13462C11.5631 0.711538 10.8098 0.5 10 0.5ZM10 2.34615C10.7533 2.34615 11.3936 2.61538 11.9209 3.15385C12.4482 3.69231 12.7119 4.34615 12.7119 5.11538V6.03846H7.28814V5.11538C7.28814 4.34615 7.55179 3.69231 8.0791 3.15385C8.6064 2.61538 9.2467 2.34615 10 2.34615ZM2.71186 7.88462H5.48023V10.6538H7.28814V7.88462H12.7119V10.6538H14.5198V7.88462H17.2881L18.0791 22.6538H1.9209L2.71186 7.88462Z" fill="white"/>
</svg>
